
<svg width="1013" height="208" viewBox="0 0 1013 208" fill="none" xmlns="http://www.w3.org/2000/svg">
<path d="M57.6052 115.636C58.359 114.908 59.547 114.886 60.3278 115.584L100.759 151.749C101.181 152.127 101.423 152.665 101.425 153.231L101.574 190.588C101.578 191.692 100.686 192.591 99.5817 192.596L78.6013 192.679C77.4969 192.683 76.5981 191.792 76.5935 190.688L76.3903 139.483C76.3835 137.768 74.362 136.857 73.072 137.987L45.9392 161.771C45.1605 162.453 43.9892 162.429 43.24 161.714L27.9616 147.139C27.1391 146.354 27.1349 145.042 27.9528 144.253L57.6052 115.636ZM176.25 90.6504C177.354 90.6127 178.279 91.4771 178.317 92.5811L179.034 113.549C179.072 114.653 178.207 115.578 177.103 115.616L125.928 117.365C124.214 117.424 123.365 119.472 124.534 120.728L149.126 147.13C149.831 147.888 149.842 149.059 149.15 149.829L135.044 165.541C134.284 166.387 132.973 166.431 132.159 165.637L102.66 136.862C101.91 136.131 101.852 134.944 102.526 134.143L137.453 92.6377C137.817 92.2044 138.349 91.9462 138.915 91.9268L176.25 90.6504ZM47.613 41.9336C48.4223 41.1353 49.7334 41.1712 50.4978 42.0127L78.2067 72.5156C78.9109 73.2911 78.8971 74.4789 78.1755 75.2383L40.8073 114.559C40.4173 114.969 39.8714 115.195 39.3054 115.181L1.96066 114.201C0.856755 114.172 -0.0144373 113.253 0.014366 112.149L0.564171 91.1758C0.593133 90.0717 1.51183 89.1997 2.61593 89.2285L53.8034 90.5713C55.518 90.616 56.4902 88.6233 55.3991 87.2998L32.445 59.4609C31.7865 58.662 31.8467 57.4929 32.5837 56.7656L47.613 41.9336ZM103.434 15.6406C104.539 15.6406 105.434 16.5361 105.434 17.6406V68.8457C105.435 70.5608 107.452 71.4799 108.747 70.3545L135.974 46.6787C136.756 45.9994 137.926 46.0285 138.673 46.7461L153.893 61.3818C154.713 62.1699 154.711 63.4813 153.89 64.2676L124.125 92.7666C123.368 93.4911 122.18 93.5091 121.402 92.8076L81.115 56.4824C80.6944 56.1032 80.4538 55.5634 80.4538 54.9971V17.6406C80.4538 16.5361 81.3493 15.6407 82.4538 15.6406H103.434Z" fill="#B15FFD"/>
<path d="M258.235 165.92C248.848 165.92 240.848 164.213 234.235 160.8C227.728 157.387 222.128 152.8 217.435 147.04L229.915 135.36C233.862 140.16 238.182 143.787 242.875 146.24C247.675 148.693 253.115 149.92 259.195 149.92C266.342 149.92 271.728 148.32 275.355 145.12C278.982 141.92 280.795 137.6 280.795 132.16C280.795 127.787 279.515 124.32 276.955 121.76C274.395 119.2 269.862 117.28 263.355 116L253.435 114.24C242.555 112.213 234.395 108.64 228.955 103.52C223.515 98.4 220.795 91.36 220.795 82.4C220.795 77.4933 221.702 73.0667 223.515 69.12C225.435 65.0667 228.048 61.7067 231.355 59.04C234.768 56.2667 238.875 54.1333 243.675 52.64C248.475 51.1467 253.862 50.4 259.835 50.4C268.262 50.4 275.568 51.8933 281.755 54.88C287.942 57.76 293.222 61.9733 297.595 67.52L284.955 78.72C282.075 74.9867 278.555 72 274.395 69.76C270.235 67.52 265.062 66.4 258.875 66.4C252.475 66.4 247.515 67.68 243.995 70.24C240.475 72.8 238.715 76.5333 238.715 81.44C238.715 86.1333 240.155 89.6533 243.035 92C245.915 94.24 250.395 95.9467 256.475 97.12L266.395 99.2C277.595 101.333 285.755 104.96 290.875 110.08C296.102 115.2 298.715 122.24 298.715 131.2C298.715 136.427 297.808 141.173 295.995 145.44C294.182 149.707 291.515 153.387 287.995 156.48C284.582 159.467 280.368 161.813 275.355 163.52C270.342 165.12 264.635 165.92 258.235 165.92ZM350.18 165.92C344.207 165.92 338.873 164.907 334.18 162.88C329.487 160.853 325.487 157.973 322.18 154.24C318.873 150.4 316.313 145.813 314.5 140.48C312.793 135.04 311.94 129.013 311.94 122.4C311.94 115.787 312.793 109.813 314.5 104.48C316.313 99.04 318.873 94.4533 322.18 90.72C325.487 86.88 329.487 83.9467 334.18 81.92C338.873 79.8933 344.207 78.88 350.18 78.88C356.26 78.88 361.593 79.9467 366.18 82.08C370.873 84.2133 374.767 87.2 377.86 91.04C380.953 94.7733 383.247 99.1467 384.74 104.16C386.34 109.173 387.14 114.56 387.14 120.32V126.88H330.02V129.6C330.02 136 331.887 141.28 335.62 145.44C339.46 149.493 344.9 151.52 351.94 151.52C357.06 151.52 361.38 150.4 364.9 148.16C368.42 145.92 371.407 142.88 373.86 139.04L384.1 149.12C381.007 154.24 376.527 158.347 370.66 161.44C364.793 164.427 357.967 165.92 350.18 165.92ZM350.18 92.48C347.193 92.48 344.42 93.0133 341.86 94.08C339.407 95.1467 337.273 96.64 335.46 98.56C333.753 100.48 332.42 102.773 331.46 105.44C330.5 108.107 330.02 111.04 330.02 114.24V115.36H368.74V113.76C368.74 107.36 367.087 102.24 363.78 98.4C360.473 94.4533 355.94 92.48 350.18 92.48ZM437.006 165.92C431.033 165.92 425.7 164.907 421.006 162.88C416.313 160.853 412.366 157.973 409.166 154.24C405.966 150.4 403.513 145.813 401.806 140.48C400.1 135.04 399.246 129.013 399.246 122.4C399.246 115.787 400.1 109.813 401.806 104.48C403.513 99.04 405.966 94.4533 409.166 90.72C412.366 86.88 416.313 83.9467 421.006 81.92C425.7 79.8933 431.033 78.88 437.006 78.88C445.326 78.88 452.153 80.7467 457.486 84.48C462.82 88.2133 466.713 93.1733 469.166 99.36L454.766 106.08C453.593 102.24 451.513 99.2 448.526 96.96C445.646 94.6133 441.806 93.44 437.006 93.44C430.606 93.44 425.753 95.4667 422.446 99.52C419.246 103.467 417.646 108.64 417.646 115.04V129.92C417.646 136.32 419.246 141.547 422.446 145.6C425.753 149.547 430.606 151.52 437.006 151.52C442.126 151.52 446.18 150.293 449.166 147.84C452.26 145.28 454.713 141.92 456.526 137.76L469.806 144.8C467.033 151.627 462.873 156.853 457.326 160.48C451.78 164.107 445.006 165.92 437.006 165.92ZM535.209 150.24H534.569C533.822 152.267 532.809 154.24 531.529 156.16C530.356 158.08 528.809 159.787 526.889 161.28C525.076 162.667 522.836 163.787 520.169 164.64C517.609 165.493 514.622 165.92 511.209 165.92C502.569 165.92 495.849 163.147 491.049 157.6C486.356 152.053 484.009 144.107 484.009 133.76V80.8H501.449V131.52C501.449 144.427 506.782 150.88 517.449 150.88C519.689 150.88 521.876 150.613 524.009 150.08C526.142 149.44 528.009 148.533 529.609 147.36C531.316 146.187 532.649 144.693 533.609 142.88C534.676 141.067 535.209 138.933 535.209 136.48V80.8H552.649V164H535.209V150.24ZM576.021 164V80.8H593.461V96.8H594.261C595.435 92.5333 597.888 88.8 601.621 85.6C605.355 82.4 610.528 80.8 617.141 80.8H621.781V97.6H614.901C607.968 97.6 602.635 98.72 598.901 100.96C595.275 103.2 593.461 106.507 593.461 110.88V164H576.021ZM667.53 165.92C661.557 165.92 656.223 164.907 651.53 162.88C646.837 160.853 642.837 157.973 639.53 154.24C636.223 150.4 633.663 145.813 631.85 140.48C630.143 135.04 629.29 129.013 629.29 122.4C629.29 115.787 630.143 109.813 631.85 104.48C633.663 99.04 636.223 94.4533 639.53 90.72C642.837 86.88 646.837 83.9467 651.53 81.92C656.223 79.8933 661.557 78.88 667.53 78.88C673.61 78.88 678.943 79.9467 683.53 82.08C688.223 84.2133 692.117 87.2 695.21 91.04C698.303 94.7733 700.597 99.1467 702.09 104.16C703.69 109.173 704.49 114.56 704.49 120.32V126.88H647.37V129.6C647.37 136 649.237 141.28 652.97 145.44C656.81 149.493 662.25 151.52 669.29 151.52C674.41 151.52 678.73 150.4 682.25 148.16C685.77 145.92 688.757 142.88 691.21 139.04L701.45 149.12C698.357 154.24 693.877 158.347 688.01 161.44C682.143 164.427 675.317 165.92 667.53 165.92ZM667.53 92.48C664.543 92.48 661.77 93.0133 659.21 94.08C656.757 95.1467 654.623 96.64 652.81 98.56C651.103 100.48 649.77 102.773 648.81 105.44C647.85 108.107 647.37 111.04 647.37 114.24V115.36H686.09V113.76C686.09 107.36 684.437 102.24 681.13 98.4C677.823 94.4533 673.29 92.48 667.53 92.48ZM739.956 164C733.983 164 729.503 162.507 726.516 159.52C723.636 156.427 722.196 152.16 722.196 146.72V45.6H739.636V149.76H751.156V164H739.956ZM816.011 80.8H832.811L797.771 180.48C796.811 183.253 795.691 185.6 794.411 187.52C793.238 189.547 791.798 191.147 790.091 192.32C788.491 193.6 786.518 194.507 784.171 195.04C781.825 195.68 779.051 196 775.851 196H765.771V181.76H779.851L784.651 167.68L754.411 80.8H771.851L788.491 129.76L793.291 147.84H794.091L799.371 129.76L816.011 80.8Z" fill="white"/>
<path d="M868.599 164C862.519 164 857.932 162.453 854.839 159.36C851.746 156.16 850.199 151.68 850.199 145.92V95.04H837.239V80.8H844.279C847.159 80.8 849.132 80.16 850.199 78.88C851.372 77.6 851.959 75.52 851.959 72.64V58.08H867.639V80.8H885.079V95.04H867.639V149.76H883.799V164H868.599ZM911.196 65.92C907.57 65.92 904.903 65.0667 903.196 63.36C901.596 61.6533 900.796 59.4667 900.796 56.8V54.08C900.796 51.4133 901.596 49.2267 903.196 47.52C904.903 45.8133 907.57 44.96 911.196 44.96C914.823 44.96 917.436 45.8133 919.036 47.52C920.636 49.2267 921.436 51.4133 921.436 54.08V56.8C921.436 59.4667 920.636 61.6533 919.036 63.36C917.436 65.0667 914.823 65.92 911.196 65.92ZM902.396 80.8H919.836V164H902.396V80.8ZM933.86 164L963.14 121.92L934.66 80.8H954.82L973.54 109.76H974.02L993.22 80.8H1011.78L983.3 121.76L1012.26 164H992.1L972.9 133.76H972.42L952.42 164H933.86Z" fill="#B15FFD"/>
</svg>
